<svg xmlns="http://www.w3.org/2000/svg" width="1200" height="800" style="background:#1e1e2e">
<rect x="50" y="100" width="100" height="50" rx="8" fill="#9c36b5" stroke="#9c36b5" stroke-width="2"/>
<rect x="200" y="100" width="100" height="50" rx="8" fill="#e8590c" stroke="#e8590c" stroke-width="2"/>
<rect x="350" y="100" width="100" height="50" rx="8" fill="#2f9e44" stroke="#2f9e44" stroke-width="2"/>
<rect x="175" y="175" width="100" height="50" rx="8" fill="#1971c2" stroke="#1971c2" stroke-width="2"/>
<rect x="500" y="250" width="100" height="50" rx="8" fill="#e03131" stroke="#e03131" stroke-width="2"/>
<defs><marker id="mfrontend_to_API" markerWidth="8" markerHeight="6" refX="7" refY="3" orient="auto"><polygon points="0 0, 8 3, 0 6" fill="#e8590c"/></marker></defs>
<line x1="90" y1="100" x2="175" y2="100" stroke="#e8590c" stroke-width="2" marker-end="url(#mfrontend_to_API)" opacity="0.8"/>
<defs><marker id="mAPI_to_authService" markerWidth="8" markerHeight="6" refX="7" refY="3" orient="auto"><polygon points="0 0, 8 3, 0 6" fill="#e8590c"/></marker></defs>
<line x1="175" y1="125" x2="175" y2="150" stroke="#e8590c" stroke-width="2" marker-end="url(#mAPI_to_authService)" opacity="0.8"/>
<defs><marker id="mAPI_to_database" markerWidth="8" markerHeight="6" refX="7" refY="3" orient="auto"><polygon points="0 0, 8 3, 0 6" fill="#e8590c"/></marker></defs>
<line x1="175" y1="175" x2="325" y2="175" stroke="#e8590c" stroke-width="2" marker-end="url(#mAPI_to_database)" opacity="0.8"/>
<defs><marker id="mAPI_to_fileStorage" markerWidth="8" markerHeight="6" refX="7" refY="3" orient="auto"><polygon points="0 0, 8 3, 0 6" fill="#e8590c"/></marker></defs>
<line x1="175" y1="200" x2="475" y2="200" stroke="#e8590c" stroke-width="2" marker-end="url(#mAPI_to_fileStorage)" opacity="0.8"/>
</svg>