<?xml version="1.0" standalone="no"?>
<!DOCTYPE svg PUBLIC "-//W3C//DTD SVG 20010904//EN"
 "http://www.w3.org/TR/2001/REC-SVG-20010904/DTD/svg10.dtd">
<svg version="1.0" xmlns="http://www.w3.org/2000/svg"
   viewBox="270 300 520 420"
 preserveAspectRatio="xMidYMid meet">
<g transform="translate(0.000000,1064.000000) scale(0.100000,-0.100000)"
fill="currentColor" stroke="none">
<path d="M0 5320 l0 -5320 5320 0 5320 0 0 5320 0 5320 -5320 0 -5320 0 0
-5320z m10440 0 l0 -5120 -5120 0 -5120 0 0 5120 0 5120 5120 0 5120 0 0
-5120z M5066 6867 c-222 -347 -399 -623 -599 -934 -74 -115 -185 -288 -248
-386 -63 -98 -215 -334 -339 -525 -424 -656 -949 -1478 -957 -1498 -4 -12 306
-14 2346 -14 1293 0 2351 2 2351 5 0 2 -54 89 -119 192 -112 176 -225 353
-643 1003 -94 146 -197 308 -231 360 -33 52 -108 169 -167 260 -59 91 -277
431 -485 755 -208 325 -448 698 -533 829 -85 132 -156 246 -159 253 -3 7 -8
13 -12 13 -3 0 -96 -141 -205 -313z m164 -206 l0 -138 -38 -26 c-125 -82 -71
-270 77 -269 96 1 159 67 148 158 -6 54 -28 89 -73 116 l-34 20 0 141 c0 121
2 139 14 127 7 -8 126 -190 263 -405 360 -562 768 -1197 928 -1443 76 -117
136 -214 134 -215 -2 -1 -73 -1 -156 1 l-153 3 0 149 0 148 -106 100 c-99 94
-105 102 -99 131 9 43 -25 115 -67 141 -43 26 -113 26 -156 0 -128 -78 -74
-275 75 -272 24 0 56 8 70 18 l27 17 83 -86 83 -86 0 -175 0 -176 231 -2 232
-3 73 -115 73 -115 -207 -3 c-188 -2 -208 -1 -217 15 -22 38 -64 72 -103 84
-35 10 -48 9 -87 -5 -58 -23 -88 -64 -92 -130 -12 -157 186 -214 272 -79 l20
32 226 1 c165 0 230 -3 242 -12 9 -7 55 -73 101 -145 l85 -133 -197 0 -198 0
-16 34 c-22 46 -93 80 -146 71 -56 -9 -107 -55 -120 -108 -29 -112 58 -203
175 -184 38 6 89 47 99 79 5 17 20 18 236 16 l231 -3 79 -125 78 -125 -1025
-3 c-564 -1 -1486 -1 -2050 0 l-1025 3 150 235 c83 129 154 236 159 238 5 2
21 -12 36 -30 15 -18 81 -88 147 -155 l120 -123 248 0 248 0 66 71 67 70 -23
29 c-13 16 -28 29 -33 29 -6 1 -35 -24 -65 -54 l-54 -55 -211 0 -210 0 -85 88
c-47 48 -101 104 -120 125 l-34 37 191 0 191 0 21 -35 c23 -39 71 -65 121 -65
85 0 159 87 145 170 -12 71 -81 130 -151 130 -39 0 -100 -38 -120 -76 l-19
-34 -203 0 c-160 0 -202 3 -196 13 4 6 41 63 81 125 l73 113 253 -1 c138 -1
262 -1 275 -1 19 1 22 6 22 41 l0 40 -246 0 c-197 0 -245 3 -241 13 3 7 30 52
61 100 l56 87 119 0 118 0 97 105 97 105 31 -16 c49 -25 131 -15 168 21 63 60
60 157 -5 214 -42 36 -73 46 -123 37 -72 -11 -122 -74 -122 -151 0 -38 -6 -47
-93 -133 l-93 -93 -67 3 -66 3 198 310 c110 171 291 452 402 625 112 173 254
393 314 490 201 319 300 470 307 470 5 0 8 -62 8 -139z m85 -246 c30 -29 32
-58 5 -85 -41 -41 -110 -13 -110 45 0 61 61 85 105 40z m713 -1091 c45 -31 14
-114 -43 -114 -28 0 -65 35 -65 62 0 24 44 68 67 68 10 0 29 -7 41 -16z
m-1520 -140 c15 -10 22 -25 22 -46 0 -66 -69 -92 -109 -41 -24 30 -20 58 11
86 25 21 47 22 76 1z m1834 -781 c37 -33 9 -113 -41 -113 -29 0 -71 39 -71 66
0 53 72 84 112 47z m-2148 -119 c36 -36 7 -104 -44 -104 -56 0 -83 51 -49 93
24 31 68 36 93 11z m2416 -254 c27 -27 25 -56 -5 -85 -29 -30 -58 -32 -85 -5
-24 24 -26 57 -4 88 19 28 67 29 94 2z M5042 6050 c-397 -104 -504 -544 -222
-915 47 -63 51 -70 35 -80 -10 -5 -57 -36 -106 -67 -214 -138 -319 -323 -319
-561 0 -238 117 -430 325 -533 109 -54 201 -75 356 -81 157 -6 258 9 376 58
72 30 191 108 227 148 11 11 23 21 27 21 5 0 42 -42 84 -94 41 -52 80 -98 86
-101 18 -12 409 -11 409 0 0 6 -85 110 -190 232 l-190 221 40 87 c66 142 114
342 135 568 l7 67 -159 0 -159 0 -11 -112 c-12 -113 -49 -321 -63 -347 -5 -9
-61 51 -177 191 -94 112 -178 209 -187 217 -27 23 -18 40 37 67 142 72 258
168 311 258 151 258 63 593 -187 714 -37 18 -95 39 -130 47 -89 21 -264 19
-355 -5z m298 -277 c81 -33 119 -100 120 -208 0 -90 -29 -155 -96 -214 -48
-42 -178 -121 -200 -121 -18 0 -92 104 -126 177 -53 112 -49 245 8 313 62 73
189 96 294 53z m-154 -1090 c247 -283 349 -405 349 -421 0 -21 -109 -94 -182
-123 -87 -34 -249 -39 -335 -10 -150 51 -228 162 -228 326 0 100 27 169 93
242 40 43 156 133 172 133 1 0 60 -66 131 -147z"/>
</g>
</svg>
